<?xml version="1.0" encoding="UTF-8"?>
<svg xmlns="http://www.w3.org/2000/svg" viewBox="4 4 1062 692" width="1062" height="692"><style>
text{font-family:Helvetica, Arial, sans-serif;font-size:12px;fill:#111418;dominant-baseline:auto}
.d-mono{font-family:Menlo, Consolas, monospace;font-size:11px;fill:#2d343c}
.d-name{font-family:Helvetica, Arial, sans-serif;font-size:12.5px;font-weight:600;letter-spacing:.04em}
.d-italic{font-style:italic}
.d-comp{font-size:10.5px;font-style:italic;fill:#5b6470}
.d-frame{fill:none;stroke:#111418;stroke-width:1}
.d-frame-tab{fill:#ffffff;stroke:#111418;stroke-width:1}
.d-sym .d-shape{fill:#f4f8fd;stroke:#111418}
.d-sym .d-rule,.d-sym .d-stick{stroke:#111418}
.d-sym.c-b .d-shape{fill:#fdf8ee;stroke:#111418}
.d-sym.c-b .d-rule,.d-sym.c-b .d-stick{stroke:#111418}
.d-sym.c-c .d-shape{fill:#fbf3f6;stroke:#111418}
.d-sym.c-c .d-rule,.d-sym.c-c .d-stick{stroke:#111418}
.d-sym.c-n .d-shape{fill:#fffbe6;stroke:#5b6470}
.d-sym.c-n .d-rule,.d-sym.c-n .d-stick{stroke:#5b6470}
.d-shape{stroke-width:1.2}
.d-shape.dashed{stroke-dasharray:6 4}
.d-rule{stroke-width:.8;opacity:.55;fill:none}
.d-stick{fill:none;stroke-width:1.5}
.d-port{fill:#ffffff;stroke:#111418;stroke-width:1.2}
.d-port-dir{fill:#111418;stroke:none}
.d-line{fill:none;stroke:#2d343c;stroke-width:1.2}
.d-line.dashed{stroke-dasharray:6 4}
.d-head{fill:none;stroke:#2d343c;stroke-width:1.2}
.d-head.filled{fill:#2d343c}
.d-head.hollow{fill:#ffffff}
.d-hit{fill:none;stroke:transparent;stroke-width:12}
.d-label-bg{fill:#ffffff;opacity:.85}
</style><rect x="4" y="4" width="1062" height="692" fill="#fff"/><rect class="d-frame" x="20" y="20" width="1030" height="660"/><path class="d-frame-tab" d="M20 20h391v14l-10 10H20z"/><text class="d-mono" x="30" y="36">ibd [block] Project Planner [An edit, and what arrives]</text><g class="d-symbols"><g class="d-sym " data-sym="sy_025" transform="translate(80 100)"><rect class="d-shape" width="200" height="260"/><text class="d-name" x="100" y="22" text-anchor="middle">views : Views</text></g><g class="d-sym " data-sym="sy_026" transform="translate(440 100)"><rect class="d-shape" width="200" height="160"/><text class="d-name" x="100" y="22" text-anchor="middle">store : Store</text></g><g class="d-sym " data-sym="sy_027" transform="translate(800 100)"><rect class="d-shape" width="200" height="110"/><text class="d-name" x="100" y="22" text-anchor="middle">scheduler : Scheduler</text></g><g class="d-sym " data-sym="sy_028" transform="translate(800 320)"><rect class="d-shape" width="200" height="110"/><text class="d-name" x="100" y="22" text-anchor="middle">agenda : Agenda</text></g><g class="d-sym " data-sym="sy_029" transform="translate(620 480)"><rect class="d-shape" width="200" height="150"/><text class="d-name" x="100" y="22" text-anchor="middle">sync : Sync</text></g><g class="d-sym " data-sym="sy_030" transform="translate(80 440)"><rect class="d-shape" width="240" height="150"/><text class="d-name" x="120" y="22" text-anchor="middle">flowops : Flow operations</text></g></g><g class="d-paths"><g class="d-path" data-path="pa_029"><path class="d-hit" d="M280 152L360 152L360 148L440 148"/><path class="d-line" d="M280 152L360 152L360 148L440 148"/></g><g class="d-path" data-path="pa_030"><path class="d-hit" d="M640 148L720 148L720 155L800 155"/><path class="d-line" d="M640 148L720 148L720 155L800 155"/></g><g class="d-path" data-path="pa_031"><path class="d-hit" d="M1000 166L1018 166L1018 364L1000 364"/><path class="d-line" d="M1000 166L1018 166L1018 364L1000 364"/></g><g class="d-path" data-path="pa_032"><path class="d-hit" d="M800 386L540 386L540 308L280 308"/><path class="d-line" d="M800 386L540 386L540 308L280 308"/></g><g class="d-path" data-path="pa_033"><path class="d-hit" d="M560 260L560 525L620 525"/><path class="d-line" d="M560 260L560 525L620 525"/></g><g class="d-path" data-path="pa_034"><path class="d-hit" d="M720 630L720 655L432 655L432 680"/><path class="d-line" d="M720 630L720 655L432 655L432 680"/></g><g class="d-path" data-path="pa_035"><path class="d-hit" d="M620 593L470 593L470 515L320 515"/><path class="d-line" d="M620 593L470 593L470 515L320 515"/></g><g class="d-path" data-path="pa_036"><path class="d-hit" d="M320 470L470 470L470 260"/><path class="d-line" d="M320 470L470 470L470 260"/></g></g><g class="d-ports"><g class="d-portg" data-port="pr_030|po_015"><rect class="d-port" x="273" y="145" width="14" height="14"/><path class="d-port-dir" transform="translate(280 152) rotate(360)" d="M-3 -4L4 0L-3 4Z"/><text class="d-mono" x="269" y="156" text-anchor="end">edit</text></g><g class="d-portg" data-port="pr_030|po_016"><rect class="d-port" x="273" y="301" width="14" height="14"/><path class="d-port-dir" transform="translate(280 308) rotate(180)" d="M-3 -4L4 0L-3 4Z"/><text class="d-mono" x="269" y="312" text-anchor="end">schedule</text></g><g class="d-portg" data-port="pr_028|po_008"><rect class="d-port" x="433" y="141" width="14" height="14"/><path class="d-port-dir" transform="translate(440 148) rotate(0)" d="M-3 -4L4 0L-3 4Z"/><text class="d-mono" x="451" y="152" text-anchor="start">commit</text></g><g class="d-portg" data-port="pr_028|po_011"><rect class="d-port" x="463" y="253" width="14" height="14"/><path class="d-port-dir" transform="translate(470 260) rotate(270)" d="M-3 -4L4 0L-3 4Z"/><text class="d-mono" x="470" y="248" text-anchor="middle">take</text></g><g class="d-portg" data-port="pr_028|po_009"><rect class="d-port" x="633" y="141" width="14" height="14"/><path class="d-port-dir" transform="translate(640 148) rotate(360)" d="M-3 -4L4 0L-3 4Z"/><text class="d-mono" x="629" y="152" text-anchor="end">plan</text></g><g class="d-portg" data-port="pr_028|po_010"><rect class="d-port" x="553" y="253" width="14" height="14"/><text class="d-mono" x="560" y="248" text-anchor="middle">records</text></g><g class="d-portg" data-port="pr_027|po_006"><rect class="d-port" x="793" y="148" width="14" height="14"/><path class="d-port-dir" transform="translate(800 155) rotate(0)" d="M-3 -4L4 0L-3 4Z"/><text class="d-mono" x="811" y="159" text-anchor="start">plan</text></g><g class="d-portg" data-port="pr_027|po_005"><rect class="d-port" x="993" y="159" width="14" height="14"/><path class="d-port-dir" transform="translate(1000 166) rotate(360)" d="M-3 -4L4 0L-3 4Z"/><text class="d-mono" x="989" y="170" text-anchor="end">dates</text></g><g class="d-portg" data-port="pr_018|po_002"><rect class="d-port" x="993" y="357" width="14" height="14"/><path class="d-port-dir" transform="translate(1000 364) rotate(180)" d="M-3 -4L4 0L-3 4Z"/><text class="d-mono" x="989" y="368" text-anchor="end">dates</text></g><g class="d-portg" data-port="pr_018|po_001"><rect class="d-port" x="793" y="379" width="14" height="14"/><path class="d-port-dir" transform="translate(800 386) rotate(180)" d="M-3 -4L4 0L-3 4Z"/><text class="d-mono" x="811" y="390" text-anchor="start">blocks</text></g><g class="d-portg" data-port="pr_029|po_013"><rect class="d-port" x="613" y="518" width="14" height="14"/><text class="d-mono" x="631" y="529" text-anchor="start">records</text></g><g class="d-portg" data-port="pr_029|po_012"><rect class="d-port" x="613" y="585.5" width="14" height="14"/><path class="d-port-dir" transform="translate(620 592.5) rotate(180)" d="M-3 -4L4 0L-3 4Z"/><text class="d-mono" x="631" y="596.5" text-anchor="start">ops</text></g><g class="d-portg" data-port="pr_029|po_014"><rect class="d-port" x="713" y="623" width="14" height="14"/><text class="d-mono" x="720" y="618" text-anchor="middle">server</text></g><g class="d-portg" data-port="pr_022|po_004"><rect class="d-port" x="313" y="508" width="14" height="14"/><path class="d-port-dir" transform="translate(320 515) rotate(180)" d="M-3 -4L4 0L-3 4Z"/><text class="d-mono" x="309" y="519" text-anchor="end">ops</text></g><g class="d-portg" data-port="pr_022|po_003"><rect class="d-port" x="313" y="463" width="14" height="14"/><path class="d-port-dir" transform="translate(320 470) rotate(360)" d="M-3 -4L4 0L-3 4Z"/><text class="d-mono" x="309" y="474" text-anchor="end">edit</text></g><g class="d-portg" data-port="|po_007"><rect class="d-port" x="425" y="673" width="14" height="14"/><text class="d-mono" x="432" y="668" text-anchor="middle">sync-kit</text></g></g></svg>
